<?xml version="1.0" standalone="no"?>
<!DOCTYPE svg PUBLIC "-//W3C//DTD SVG 20010904//EN"
 "http://www.w3.org/TR/2001/REC-SVG-20010904/DTD/svg10.dtd">
<svg version="1.0" xmlns="http://www.w3.org/2000/svg"
 width="200.000000pt" height="200.000000pt" viewBox="0 0 200.000000 200.000000"
 preserveAspectRatio="xMidYMid meet">
<metadata>
Created by potrace 1.11, written by Peter Selinger 2001-2013
</metadata>
<g transform="translate(0.000000,200.000000) scale(0.100000,-0.100000)"
fill="#000000" stroke="none">
<path d="M1071 1194 c-102 -67 -183 -114 -198 -114 -13 0 -22 -4 -19 -9 3 -4
-3 -16 -14 -26 -19 -18 -20 -17 -20 7 0 26 -21 39 -47 31 -17 -6 -17 -54 0
-77 11 -16 11 -24 -4 -52 -23 -46 -15 -76 20 -72 20 2 27 10 31 33 7 39 23 35
32 -6 6 -30 1 -38 -55 -98 -143 -153 -143 -151 4 -54 52 34 146 96 209 137
l115 75 3 -44 c3 -42 5 -45 33 -45 32 0 31 -1 31 92 -1 42 2 49 23 54 18 5 24
12 23 30 -1 13 -5 24 -8 25 -38 7 -133 3 -141 -7 -13 -16 -1 -42 22 -49 10 -4
19 -11 19 -16 0 -11 5 -12 -57 5 -28 8 -54 11 -57 8 -3 -3 -6 -1 -6 4 0 5 23
34 51 64 166 180 203 223 187 219 -1 0 -81 -52 -177 -115z m-148 -223 c17 -6
17 -8 4 -20 -13 -10 -17 -9 -27 8 -11 22 -7 24 23 12z"/>
<path d="M113 1083 c-9 -3 -13 -34 -13 -104 l0 -99 30 0 c29 0 30 2 30 46 l0
47 20 -26 c11 -14 20 -29 19 -34 -4 -26 3 -34 29 -31 l27 3 0 93 c1 83 -2 95
-19 104 -24 13 -47 -12 -41 -45 4 -19 2 -19 -16 6 -24 31 -48 46 -66 40z"/>
<path d="M451 1080 c-5 -3 -9 -49 -9 -103 l0 -98 66 3 c64 3 67 4 67 28 0 21
-5 25 -30 25 -16 0 -31 5 -32 10 -3 9 1 11 35 14 8 1 12 10 10 24 -2 16 -11
23 -30 25 -43 5 -33 22 12 22 36 0 40 3 40 25 0 14 -3 25 -7 26 -31 4 -115 4
-122 -1z"/>
<path d="M1433 1082 c-22 -3 -23 -8 -23 -85 0 -45 4 -87 8 -93 11 -17 44 -31
70 -28 12 1 28 2 36 3 35 3 46 31 46 117 0 48 -4 85 -10 85 -45 6 -45 6 -48
-66 -5 -117 -39 -117 -38 0 1 67 -3 73 -41 67z"/>
<path d="M1768 1083 c-14 -4 -16 -18 -15 -101 l2 -97 30 0 c25 0 30 4 30 24 0
19 6 25 30 28 16 2 35 9 42 15 17 13 17 89 1 111 -13 16 -84 28 -120 20z m72
-73 c0 -11 -4 -20 -9 -20 -11 0 -22 26 -14 34 12 12 23 5 23 -14z"/>
</g>
</svg>
